<svg version="1.1" id="Capa_1" xmlns="http://www.w3.org/2000/svg" xmlns:xlink="http://www.w3.org/1999/xlink" x="0px" y="0px" width="14px" height="14px" viewBox="0 0 512 512" style="enable-background:new 0 0 512 512;" xml:space="preserve">
	<path fill="#fff000" d="M192,416h-32V0h32V416z M384,96L512,0H224v192h288L384,96z M224,323.375v32.531c55.812,8.844,96,32.281,96,60.094
		c0,35.344-64.469,64-144,64S32,451.344,32,416c0-27.812,40.188-51.25,96-60.094v-32.531C58.875,333.219,0,364.625,0,416
		c0,63.031,88.563,96,176,96c87.438,0,176-32.969,176-96C352,364.625,293.125,333.219,224,323.375z"/>
</svg>
